<svg width="60" height="60" viewBox="0 0 60 60" fill="none" xmlns="http://www.w3.org/2000/svg">
<path fill-rule="evenodd" clip-rule="evenodd" d="M27.5155 36.1208H33.7655C33.7655 36.6121 33.8343 37.0908 33.963 37.5496C33.8264 37.6053 33.7021 37.6874 33.5972 37.7912C33.4923 37.895 33.4089 38.0185 33.3518 38.1545C33.2946 38.2906 33.2649 38.4366 33.2643 38.5842C33.2636 38.7318 33.2921 38.878 33.3481 39.0146L33.3968 39.1321C33.5223 39.4389 33.7645 39.6833 34.0702 39.8115C34.3759 39.9397 34.72 39.9413 35.0268 39.8158L35.1668 39.7583C35.5993 40.2608 36.118 40.7083 36.7068 41.0833C36.3806 41.6921 36.6043 42.4583 37.2118 42.7858C37.5039 42.9426 37.8463 42.977 38.1637 42.8813C38.4811 42.7857 38.7475 42.5679 38.9043 42.2758L39.0093 42.0833C39.8342 42.2987 40.6859 42.3943 41.538 42.3671L41.5705 42.5358C41.6335 42.8614 41.8233 43.1486 42.098 43.3342C42.3728 43.5199 42.71 43.5888 43.0355 43.5258C43.3611 43.4628 43.6483 43.2731 43.834 42.9984C44.0196 42.7236 44.0885 42.3864 44.0256 42.0608L44.0018 41.9421C45.0904 41.5952 46.0877 41.0093 46.9205 40.2271L47.308 44.8883C46.9991 44.9406 46.721 45.1069 46.5289 45.3545C46.3368 45.602 46.2447 45.9127 46.2708 46.2249C46.2969 46.5372 46.4393 46.8282 46.6699 47.0405C46.9004 47.2527 47.2022 47.3706 47.5155 47.3708H51.2655V24.8708C51.2715 23.1739 50.713 21.5231 49.678 20.1783C50.4593 20.3883 51.0055 20.6946 51.3905 21.0658C52.0868 21.7346 52.5155 22.8608 52.5155 24.8708L52.9993 31.6458C52.7055 32.1021 52.5155 32.8171 52.5155 33.6208C52.5155 35.0021 53.0756 36.1208 53.7655 36.1208C54.4555 36.1208 55.0156 35.0021 55.0156 33.6208C55.0156 32.8171 54.8256 32.1021 54.5318 31.6458L55.0156 24.8708C55.0156 22.5783 54.5368 20.6208 53.1231 19.2621C51.7268 17.9208 49.6781 17.4158 47.1568 17.3733C47.0618 17.3708 44.4605 17.3708 44.3905 17.3708V17.3796C44.2748 17.3738 44.1589 17.3709 44.0431 17.3708H25.6405C23.223 17.3708 21.3968 17.0108 19.8655 16.5358L19.6743 16.2783C20.5118 16.0658 21.3555 15.7258 21.9618 15.2783C23.5493 14.1108 24.4705 11.7621 22.4393 12.0196C21.848 12.0946 21.4218 12.1096 21.073 12.1221C20.2255 12.1508 19.848 12.1646 18.723 12.9933C18.2936 13.3071 17.8955 13.6617 17.5343 14.0521C15.7855 12.7521 13.458 12.1708 9.39055 12.3708C9.22479 12.3708 9.06582 12.4367 8.94861 12.5539C8.8314 12.6711 8.76555 12.8301 8.76555 12.9958C8.76555 13.1616 8.8314 13.3205 8.94861 13.4378C9.06582 13.555 9.22479 13.6208 9.39055 13.6208H11.5618C11.9193 13.8508 12.2243 14.0658 12.4955 14.2708L8.01555 19.8708H7.75055C7.36074 19.8707 6.97631 19.9618 6.62796 20.1368C6.27962 20.3117 5.97701 20.5657 5.74431 20.8784C5.51161 21.1912 5.35527 21.554 5.28777 21.9379C5.22027 22.3218 5.24348 22.7162 5.35555 23.0896L5.73055 24.3396C5.88513 24.8545 6.20162 25.306 6.63305 25.6268C7.06449 25.9477 7.58787 26.1209 8.12555 26.1208H12.328C12.8563 26.1211 13.3709 26.2887 13.798 26.5996L16.5355 28.5896C16.618 28.6496 16.703 28.7046 16.7893 28.7521C18.748 33.8021 20.8143 37.7346 23.1268 39.7133L23.558 44.8883C23.2491 44.9406 22.971 45.1069 22.7789 45.3545C22.5868 45.602 22.4947 45.9127 22.5208 46.2249C22.5469 46.5372 22.6893 46.8282 22.9199 47.0405C23.1504 47.2527 23.4522 47.3706 23.7655 47.3708H27.5155V36.1208ZM39.778 36.1208H36.2655C36.2655 37.7833 38.058 39.8708 41.2655 39.8708C42.4543 39.8708 43.4493 39.5833 44.2306 39.1383C42.4431 38.4258 41.0581 37.3658 39.7793 36.1208H39.778Z" fill="#0D0D0D"/>
</svg>
