<svg width="99" height="99" viewBox="0 0 99 99" fill="none" xmlns="http://www.w3.org/2000/svg">
<rect width="99" height="99" fill="#1E1E1E"/>
<rect width="1440" height="1024" transform="translate(-774 -269)" fill="white"/>
<g filter="url(#filter0_d_209_1178)">
<rect x="-58" y="-35" width="337.165" height="155" rx="14" fill="url(#paint0_linear_209_1178)" shape-rendering="crispEdges"/>
</g>
<path fill-rule="evenodd" clip-rule="evenodd" d="M45.1964 51.7237H55.462C55.462 52.5305 55.5749 53.3169 55.7864 54.0704C55.5619 54.1619 55.3577 54.2967 55.1854 54.4672C55.0131 54.6377 54.8762 54.8405 54.7823 55.064C54.6885 55.2875 54.6397 55.5273 54.6386 55.7697C54.6376 56.0121 54.6844 56.2523 54.7762 56.4766L54.8563 56.6696C55.0625 57.1735 55.4603 57.5749 55.9624 57.7855C56.4645 57.9961 57.0296 57.9987 57.5336 57.7927L57.7635 57.6982C58.4739 58.5236 59.3259 59.2586 60.293 59.8745C59.7571 60.8744 60.1246 62.1329 61.1224 62.6709C61.6021 62.9284 62.1645 62.9848 62.6858 62.8277C63.2072 62.6706 63.6448 62.3129 63.9023 61.8332L64.0748 61.517C65.4298 61.8708 66.8286 62.0277 68.2282 61.9831L68.2816 62.2602C68.3851 62.795 68.6967 63.2667 69.148 63.5716C69.5992 63.8766 70.1531 63.9898 70.6879 63.8863C71.2226 63.7828 71.6943 63.4712 71.9993 63.0199C72.3042 62.5687 72.4174 62.0148 72.3139 61.48L72.2749 61.285C74.063 60.7153 75.701 59.7529 77.0689 58.4681L77.7054 66.1242C77.198 66.21 76.7412 66.4833 76.4257 66.8899C76.1102 67.2965 75.9589 67.8067 76.0018 68.3196C76.0446 68.8324 76.2786 69.3105 76.6572 69.6591C77.0358 70.0076 77.5316 70.2013 78.0462 70.2017H84.2056V33.2457C84.2153 30.4584 83.298 27.7471 81.5981 25.5383C82.8813 25.8832 83.7785 26.3862 84.4109 26.996C85.5545 28.0944 86.2587 29.9442 86.2587 33.2457L87.0532 44.3735C86.5707 45.1229 86.2587 46.2973 86.2587 47.6174C86.2587 49.8861 87.1785 51.7237 88.3118 51.7237C89.4451 51.7237 90.3649 49.8861 90.3649 47.6174C90.3649 46.2973 90.0528 45.1229 89.5703 44.3735L90.3649 33.2457C90.3649 29.4802 89.5786 26.2651 87.2565 24.0333C84.9632 21.8303 81.5981 21.0009 77.457 20.9311C77.3009 20.927 73.0284 20.927 72.9134 20.927V20.9413C72.7233 20.9319 72.533 20.9271 72.3427 20.927H42.1168C38.146 20.927 35.1464 20.3357 32.6314 19.5555L32.3173 19.1326C33.6928 18.7835 35.0787 18.2251 36.0744 17.4901C38.6819 15.5725 40.195 11.7147 36.8587 12.1376C35.8876 12.2608 35.1875 12.2854 34.6147 12.306C33.2227 12.3532 32.6026 12.3758 30.7548 13.737C30.0495 14.2523 29.3956 14.8347 28.8023 15.476C25.93 13.3407 22.1071 12.386 15.4263 12.7145C15.154 12.7145 14.8929 12.8227 14.7004 13.0152C14.5079 13.2077 14.3997 13.4688 14.3997 13.7411C14.3997 14.0133 14.5079 14.2745 14.7004 14.467C14.8929 14.6595 15.154 14.7676 15.4263 14.7676H18.9926C19.5797 15.1454 20.0807 15.4985 20.5262 15.8353L13.1679 25.0332H12.7326C12.0924 25.0331 11.4609 25.1826 10.8888 25.47C10.3166 25.7574 9.8196 26.1745 9.43739 26.6882C9.05519 27.2019 8.79839 27.7978 8.68752 28.4284C8.57665 29.059 8.61478 29.7067 8.79885 30.32L9.41478 32.3731C9.66868 33.2189 10.1885 33.9604 10.8971 34.4874C11.6058 35.0144 12.4654 35.299 13.3485 35.2988H20.2511C21.1188 35.2992 21.964 35.5745 22.6656 36.0851L27.1619 39.3537C27.2974 39.4522 27.437 39.5425 27.5787 39.6206C30.7959 47.9151 34.1897 54.3742 37.9879 57.6243L38.6963 66.1242C38.1888 66.21 37.7321 66.4833 37.4166 66.8899C37.1011 67.2965 36.9498 67.8067 36.9926 68.3196C37.0355 68.8324 37.2694 69.3105 37.6481 69.6591C38.0267 70.0076 38.5224 70.2013 39.0371 70.2017H45.1964V51.7237ZM65.3375 51.7237H59.5682C59.5682 54.4543 62.5124 57.883 67.7807 57.883C69.7332 57.883 71.3675 57.4108 72.6506 56.6799C69.7147 55.5096 67.4398 53.7686 65.3395 51.7237H65.3375Z" fill="#FBFBFB"/>
<defs>
<filter id="filter0_d_209_1178" x="-84" y="-61" width="397.165" height="215" filterUnits="userSpaceOnUse" color-interpolation-filters="sRGB">
<feFlood flood-opacity="0" result="BackgroundImageFix"/>
<feColorMatrix in="SourceAlpha" type="matrix" values="0 0 0 0 0 0 0 0 0 0 0 0 0 0 0 0 0 0 127 0" result="hardAlpha"/>
<feOffset dx="4" dy="4"/>
<feGaussianBlur stdDeviation="15"/>
<feComposite in2="hardAlpha" operator="out"/>
<feColorMatrix type="matrix" values="0 0 0 0 0 0 0 0 0 0 0 0 0 0 0 0 0 0 0.3 0"/>
<feBlend mode="normal" in2="BackgroundImageFix" result="effect1_dropShadow_209_1178"/>
<feBlend mode="normal" in="SourceGraphic" in2="effect1_dropShadow_209_1178" result="shape"/>
</filter>
<linearGradient id="paint0_linear_209_1178" x1="110.582" y1="-35" x2="109.783" y2="139.175" gradientUnits="userSpaceOnUse">
<stop stop-color="#2E78A6"/>
<stop offset="0.958333" stop-color="#1C4965" stop-opacity="0.65"/>
</linearGradient>
</defs>
</svg>
