<svg width="40" height="40" viewBox="0 0 40 40" fill="none" xmlns="http://www.w3.org/2000/svg">
<path d="M20 23.3333C22.2102 23.3333 24.3298 22.4553 25.8926 20.8925C27.4554 19.3297 28.3334 17.2101 28.3334 14.9999C28.3334 12.7898 27.4554 10.6702 25.8926 9.10738C24.3298 7.54457 22.2102 6.6666 20 6.6666C17.7899 6.6666 15.6703 7.54457 14.1075 9.10738C12.5447 10.6702 11.6667 12.7898 11.6667 14.9999C11.6667 17.2101 12.5447 19.3297 14.1075 20.8925C15.6703 22.4553 17.7899 23.3333 20 23.3333ZM21.6667 29.9999H23.3334C23.7754 29.9999 24.1993 30.1755 24.5119 30.4881C24.8244 30.8006 25 31.2246 25 31.6666C25 32.1086 24.8244 32.5326 24.5119 32.8451C24.1993 33.1577 23.7754 33.3333 23.3334 33.3333H21.6667V34.9999C21.6667 35.442 21.4911 35.8659 21.1785 36.1784C20.866 36.491 20.442 36.6666 20 36.6666C19.558 36.6666 19.1341 36.491 18.8215 36.1784C18.5089 35.8659 18.3334 35.442 18.3334 34.9999V33.3333H16.6667C16.2247 33.3333 15.8007 33.1577 15.4882 32.8451C15.1756 32.5326 15 32.1086 15 31.6666C15 31.2246 15.1756 30.8006 15.4882 30.4881C15.8007 30.1755 16.2247 29.9999 16.6667 29.9999H18.3334V26.6666C18.3334 26.6266 18.3334 26.5883 18.3367 26.5499C15.422 26.1229 12.7767 24.6093 10.9316 22.313C9.0864 20.0167 8.17793 17.1075 8.38844 14.1693C8.59894 11.231 9.91286 8.4811 12.0665 6.47128C14.2202 4.46147 17.0542 3.34048 20 3.33327C22.9529 3.3288 25.7977 4.44425 27.9606 6.45466C30.1234 8.46506 31.4435 11.2208 31.6545 14.1662C31.8655 17.1116 30.9518 20.0274 29.0976 22.3256C27.2434 24.6238 24.5867 26.1334 21.6634 26.5499L21.6667 26.6666V29.9999Z" fill="#CD6565"/>
</svg>
