<svg width="40" height="40" viewBox="0 0 40 40" fill="none" xmlns="http://www.w3.org/2000/svg">
<g clip-path="url(#clip0_291_665)">
<path fill-rule="evenodd" clip-rule="evenodd" d="M35 15C35 15.442 34.8244 15.8659 34.5118 16.1785C34.1993 16.4911 33.7753 16.6667 33.3333 16.6667C32.8913 16.6667 32.4674 16.4911 32.1548 16.1785C31.8422 15.8659 31.6667 15.442 31.6667 15V10.69L25.7717 16.585C27.6947 19.1059 28.588 22.2633 28.2706 25.418C27.9531 28.5728 26.4487 31.489 24.062 33.5762C21.6752 35.6634 18.5845 36.7656 15.4156 36.6596C12.2467 36.5537 9.23653 35.2474 6.99455 33.0054C4.75256 30.7635 3.44633 27.7533 3.34036 24.5844C3.2344 21.4155 4.3366 18.3248 6.42381 15.938C8.51101 13.5512 11.4272 12.0468 14.5819 11.7294C17.7367 11.412 20.8941 12.3052 23.415 14.2283L29.31 8.33333H25C24.558 8.33333 24.134 8.15774 23.8215 7.84518C23.5089 7.53262 23.3333 7.10869 23.3333 6.66667C23.3333 6.22464 23.5089 5.80072 23.8215 5.48816C24.134 5.17559 24.558 5 25 5H32.9167C34.0667 5 35 5.93333 35 7.08333V15ZM15.8333 15C13.4022 15 11.0706 15.9658 9.35151 17.6849C7.63242 19.4039 6.66665 21.7355 6.66665 24.1667C6.66665 26.5978 7.63242 28.9294 9.35151 30.6485C11.0706 32.3676 13.4022 33.3333 15.8333 33.3333C18.2645 33.3333 20.596 32.3676 22.3151 30.6485C24.0342 28.9294 25 26.5978 25 24.1667C25 21.7355 24.0342 19.4039 22.3151 17.6849C20.596 15.9658 18.2645 15 15.8333 15Z" fill="#2E78A6"/>
</g>
<defs>
<clipPath id="clip0_291_665">
<rect width="40" height="40" fill="white"/>
</clipPath>
</defs>
</svg>
